<?xml version="1.0" encoding="utf-8"?>
<!-- Generator: Adobe Illustrator 28.2.0, SVG Export Plug-In . SVG Version: 6.00 Build 0)  -->
<svg version="1.1" id="Livello_1" xmlns="http://www.w3.org/2000/svg" xmlns:xlink="http://www.w3.org/1999/xlink" x="0px" y="0px"
	 viewBox="0 0 222.7 46.5" style="enable-background:new 0 0 222.7 46.5;" xml:space="preserve">
<style type="text/css">
	.st0{fill:#FFD700;}
	.st1{fill:#FFFFFF;}
</style>
<g>
	<path class="st0" d="M14.5,36.7c0,1.8-1.4,3.2-3.2,3.2s-3.2-1.4-3.2-3.2s1.4-3.2,3.2-3.2h0.5v-6.3h-0.5c-5.2,0-9.5,4.2-9.5,9.5
		s4.2,9.5,9.5,9.5c5.2,0,9.5-4.2,9.5-9.5V21.9h-6.3V36.7z"/>
	<path class="st0" d="M35.1,9.7c0-1.8,1.4-3.2,3.2-3.2c1.8,0,3.2,1.4,3.2,3.2s-1.4,3.2-3.2,3.2h-0.5v6.3h0.5c5.2,0,9.5-4.2,9.5-9.5
		s-4.2-9.5-9.5-9.5c-5.2,0-9.5,4.2-9.5,9.5v14.8h6.3V9.7z"/>
	<path class="st1" d="M38.3,27.3H23.5v6.3h14.8c1.8,0,3.2,1.4,3.2,3.2s-1.4,3.2-3.2,3.2c-1.8,0-3.2-1.4-3.2-3.2v-0.5h-6.3v0.5
		c0,5.2,4.2,9.5,9.5,9.5s9.5-4.2,9.5-9.5S43.5,27.3,38.3,27.3z"/>
	<path class="st1" d="M11.3,0.3c-5.2,0-9.5,4.2-9.5,9.5s4.2,9.5,9.5,9.5h14.8v-6.3H11.3c-1.8,0-3.2-1.4-3.2-3.2s1.4-3.2,3.2-3.2
		s3.2,1.4,3.2,3.2v0.5h6.3V9.7C20.8,4.5,16.6,0.3,11.3,0.3L11.3,0.3z"/>
</g>
<g>
	<path class="st1" d="M62.9,14.4h6.9c3.8,0,7,1.2,7,5.6c0,4.3-3,5.7-6.8,5.7h-3v7.2h-4.1V14.4z M67,22.2h2.7c1.4,0,2.9-0.5,2.9-2.2
		c0-1.9-1.9-2.2-3.5-2.2H67V22.2z"/>
	<path class="st1" d="M78.9,20.2h3.9v2h0.1c0.8-1.5,1.9-2.3,3.7-2.3c0.4,0,0.9,0,1.3,0.1v3.6c-0.5-0.2-1.1-0.3-1.7-0.3
		c-3,0-3.3,1.7-3.3,4.3v5.3h-3.9V20.2z"/>
	<path class="st1" d="M101.1,30.7c-1.3,1.6-3.3,2.5-5.4,2.5c-3.9,0-7-2.6-7-6.7c0-4,3.1-6.7,7-6.7c3.7,0,6,2.6,6,6.7v1.2h-9.1
		c0.3,1.5,1.4,2.5,3,2.5c1.3,0,2.1-0.7,2.8-1.5L101.1,30.7z M97.7,25.1c0-1.3-1-2.4-2.4-2.4c-1.7,0-2.7,1.2-2.8,2.4H97.7z"/>
	<path class="st1" d="M104,20.2h3.8v1.7h0.1c0.5-1,1.8-2,3.7-2c1.8,0,3.2,0.7,3.9,2.3c0.9-1.6,2.1-2.3,4-2.3c3.4,0,4.5,2.4,4.5,5.5
		v7.5h-3.9v-7.4c0-1.2-0.4-2.2-1.7-2.2c-1.8,0-2.4,1.3-2.4,2.8v6.7h-3.9v-6.7c0-0.9,0.1-2.8-1.7-2.8c-2,0-2.3,1.6-2.3,3.2v6.3H104
		V20.2z"/>
	<path class="st1" d="M128.8,13.9c1.3,0,2.3,1,2.3,2.3c0,1.3-1,2.3-2.3,2.3c-1.3,0-2.3-1-2.3-2.3C126.5,15,127.5,13.9,128.8,13.9z
		 M126.8,20.2h3.9v12.7h-3.9V20.2z"/>
	<path class="st1" d="M145.6,30.7c-1.3,1.6-3.3,2.5-5.4,2.5c-3.9,0-7-2.6-7-6.7c0-4,3.1-6.7,7-6.7c3.7,0,6,2.6,6,6.7v1.2h-9.1
		c0.3,1.5,1.4,2.5,3,2.5c1.3,0,2.1-0.7,2.8-1.5L145.6,30.7z M142.2,25.1c0-1.3-1-2.4-2.4-2.4c-1.7,0-2.7,1.2-2.8,2.4H142.2z"/>
	<path class="st1" d="M148.5,20.2h3.9v2h0.1c0.8-1.5,1.9-2.3,3.7-2.3c0.4,0,0.9,0,1.3,0.1v3.6c-0.5-0.2-1.1-0.3-1.7-0.3
		c-3,0-3.3,1.7-3.3,4.3v5.3h-3.9V20.2z"/>
	<path class="st1" d="M163.2,18H158v-3.6h14.6V18h-5.3v14.9h-4.1V18z"/>
	<path class="st1" d="M183.3,30.7c-1.3,1.6-3.3,2.5-5.4,2.5c-3.9,0-7-2.6-7-6.7c0-4,3.1-6.7,7-6.7c3.7,0,6,2.6,6,6.7v1.2h-9.1
		c0.3,1.5,1.4,2.5,3,2.5c1.3,0,2.1-0.7,2.8-1.5L183.3,30.7z M179.9,25.1c0-1.3-1-2.4-2.4-2.4c-1.7,0-2.7,1.2-2.8,2.4H179.9z"/>
	<path class="st1" d="M194.2,31.3L194.2,31.3c-0.9,1.4-2.5,1.9-4.1,1.9c-2.4,0-4.5-1.4-4.5-3.9c0-4.4,5.3-4.5,8.6-4.5
		c0-1.4-1.1-2.3-2.5-2.3c-1.3,0-2.3,0.6-3.2,1.5l-2.1-2.1c1.4-1.4,3.5-2,5.6-2c4.6,0,5.8,2.3,5.8,6.6v6.4h-3.6V31.3z M193.2,27.3
		c-1.2,0-3.9,0.1-3.9,1.8c0,0.9,1,1.4,1.9,1.4c1.5,0,3-0.8,3-2.4v-0.8H193.2z"/>
	<path class="st1" d="M200.3,20.2h3.8v1.7h0.1c0.5-1,1.8-2,3.7-2c1.8,0,3.2,0.7,3.9,2.3c0.9-1.6,2.1-2.3,4-2.3
		c3.4,0,4.5,2.4,4.5,5.5v7.5h-3.9v-7.4c0-1.2-0.4-2.2-1.7-2.2c-1.8,0-2.4,1.3-2.4,2.8v6.7h-3.9v-6.7c0-0.9,0.1-2.8-1.7-2.8
		c-2,0-2.3,1.6-2.3,3.2v6.3h-3.9V20.2z"/>
</g>
</svg>
